<svg width="27" height="27" viewBox="0 0 27 27" fill="none" xmlns="http://www.w3.org/2000/svg">
<path fill-rule="evenodd" clip-rule="evenodd" d="M13.5002 3.91501C18.7933 3.91501 23.0854 8.20678 23.0854 13.5002C23.0854 18.7936 18.7936 23.0854 13.5002 23.0854C8.20675 23.0854 3.91498 18.7936 3.91498 13.5002C3.91498 8.20678 8.20675 3.91501 13.5002 3.91501ZM4.62992 2.31496C4.62992 1.03656 3.59336 0 2.31496 0C1.03656 0 0 1.03656 0 2.31496C0 3.59336 1.03656 4.62992 2.31496 4.62992C3.59336 4.62992 4.62992 3.59336 4.62992 2.31496ZM24.685 4.62992C25.9634 4.62992 27 3.59336 27 2.31496C27 1.03656 25.9634 0 24.685 0C23.4066 0 22.3701 1.03656 22.3701 2.31496C22.3701 3.59336 23.4066 4.62992 24.685 4.62992ZM22.3701 24.685C22.3701 25.9634 23.4066 27 24.685 27C25.9634 27 27 25.9634 27 24.685C27 23.4066 25.9634 22.3701 24.685 22.3701C23.4066 22.3701 22.3701 23.4066 22.3701 24.685ZM2.31496 22.3701C1.03656 22.3701 0 23.4066 0 24.685C0 25.9634 1.03656 27 2.31496 27C3.59336 27 4.62992 25.9634 4.62992 24.685C4.62992 23.4066 3.59336 22.3701 2.31496 22.3701ZM4.26016 22.0766C4.51255 22.2644 4.73559 22.4886 4.92458 22.741L6.39901 21.2666C6.16775 21.0553 5.94588 20.8334 5.73458 20.6022L4.26016 22.0766ZM4.92341 4.26008C4.73559 4.51247 4.51136 4.73551 4.25899 4.92451L5.73341 6.39893C5.94472 6.16767 6.16659 5.9458 6.39784 5.73451L4.92341 4.26008ZM22.7399 4.92333C22.4875 4.73551 22.2645 4.51129 22.0755 4.25891L20.6011 5.73333C20.8323 5.94464 21.0542 6.16651 21.2655 6.39776L22.7399 4.92333ZM22.0767 22.7399C22.2645 22.4875 22.4887 22.2644 22.7411 22.0754L21.2667 20.601C21.0554 20.8323 20.8335 21.0541 20.6023 21.2654L22.0767 22.7399ZM20.5623 11.0651L21.0871 10.9243C21.3371 10.8573 21.4862 10.6003 21.4193 10.3502C21.3524 10.1002 21.0953 9.95107 20.8452 10.018L20.3205 10.1588C20.0704 10.2258 19.9214 10.4828 19.9883 10.7329C20.0552 10.983 20.3122 11.132 20.5623 11.0651ZM18.353 12.5631C19.0738 11.6885 18.7181 10.3608 17.6569 9.96518L18.353 12.5631ZM18.6277 13.5867C19.4776 12.9539 19.8556 11.8681 19.5809 10.8421C19.3062 9.81844 18.434 9.06476 17.3833 8.94151L16.8598 6.98811C16.713 6.43989 16.0791 6.17459 15.5837 6.47394L9.59909 10.0943C9.41831 10.2035 9.28799 10.3714 9.22461 10.5651L7.47782 11.0335C7.21486 11.1039 7.00356 11.2753 6.87677 11.4948C6.65607 11.8775 6.75351 12.1593 6.85212 12.5267L6.29801 12.6746C5.76507 12.8214 5.45631 13.3637 5.59719 13.8873L5.89067 14.9802C6.03154 15.5073 6.5786 15.8219 7.10334 15.681L7.65745 15.532L7.73258 15.8125C7.87345 16.3396 8.42051 16.6542 8.94525 16.5133L9.50873 16.3619L10.7284 20.9142C10.8329 21.3028 11.2356 21.5341 11.6218 21.4308L13.2183 21.0035C13.6034 20.9002 13.8382 20.4963 13.7349 20.1101L12.7124 16.2937L18.2438 16.4064C18.8226 16.4182 19.2381 15.8723 19.0926 15.3252L18.6253 13.5843L18.6277 13.5867ZM15.9805 7.33221L10.1344 10.8694L11.3306 15.3336L18.1615 15.4733C17.4349 12.7592 16.7072 10.0462 15.9805 7.33221ZM9.33502 11.508L7.72088 11.94C7.69388 11.947 7.67627 11.9764 7.68449 12.0045L8.64006 15.5721C8.64711 15.5991 8.67645 15.6167 8.70463 15.6084L10.3176 15.1764L9.33386 11.5068L9.33502 11.508ZM7.09636 13.4344L6.54226 13.5835C6.51526 13.5905 6.49765 13.6199 6.50469 13.648L6.79817 14.741C6.80522 14.768 6.83456 14.7856 6.86274 14.7773L7.41684 14.6294L7.09636 13.4344ZM11.5832 20.4745L12.7782 20.154L11.7393 16.2766L11.2545 16.2672C11.0408 16.2625 10.8471 16.1839 10.6969 16.0477L10.4187 16.1228L11.5844 20.4756L11.5832 20.4745ZM18.9144 8.09079L18.6421 8.56153C18.513 8.78575 18.5893 9.07218 18.8123 9.20131C19.0365 9.33044 19.323 9.25414 19.4521 9.03109L19.7244 8.56035C19.8536 8.33614 19.7773 8.0497 19.5542 7.92057C19.33 7.79144 19.0436 7.86774 18.9144 8.09079ZM20.8491 12.7477L20.3783 12.4753C20.1541 12.3462 19.8677 12.4225 19.7385 12.6456C19.6094 12.8698 19.6857 13.1562 19.9088 13.2854L20.3795 13.5577C20.6037 13.6868 20.8901 13.6105 21.0193 13.3875C21.1484 13.1633 21.0721 12.8768 20.8491 12.7477Z" fill="#00FCDB"/>
</svg>
