<svg width="20" height="19" viewBox="0 0 20 19" fill="none" xmlns="http://www.w3.org/2000/svg">
<path d="M19.2437 11.4778C20.2789 12.8927 20.0255 14.6566 18.2962 15.9672L18.296 18.7227L15.4914 17.1495C11.8691 17.8245 9.16085 16.4831 8.10687 15.1754C8.72214 15.2549 9.35021 15.2952 9.98578 15.2952C12.9504 15.2952 16.7967 14.3716 19.2437 11.4778ZM9.98578 0C15.4064 0 19.8544 3.15328 19.8544 7.13776C19.8544 11.1222 15.4064 14.2755 9.98578 14.2755C8.91987 14.2755 7.81055 14.1372 6.81952 13.9013L3.23348 16.2477V12.3499C2.74898 12.0233 0.117188 10.2427 0.117188 7.13776C0.117188 3.15328 4.56513 0 9.98578 0ZM7.41453 5.54617C6.82655 6.12333 6.80468 7.05153 7.36625 7.65986C8.5806 9.01912 9.49369 9.68674 9.98543 9.68674C10.4772 9.68674 11.3903 9.01912 12.6103 7.65364C13.1662 7.05154 13.1443 6.12333 12.5563 5.54617C11.9721 4.97275 11.0085 4.92408 10.3527 5.54617L9.98543 5.90668L9.61816 5.54617C9.00964 4.94886 8.02305 4.94886 7.41453 5.54617Z" fill="white"/>
</svg>
