<svg width="22" height="22" viewBox="0 0 22 22" fill="none" xmlns="http://www.w3.org/2000/svg">
<path d="M9.87146 14.1022V20.0253C9.86617 21.1136 8.98512 21.9936 7.8978 22H1.97472C0.886363 21.9936 0.00636308 21.1136 0 20.0253V14.1022C0.00634629 13.0149 0.886336 12.1338 1.97472 12.1285H7.8978C8.9851 12.1338 9.86615 13.0149 9.87146 14.1022ZM7.8978 0H1.97472C0.886363 0.00634628 0.00636308 0.886335 0 1.97472V7.89779C0.00634629 8.98509 0.886336 9.86614 1.97472 9.87145H7.8978C8.9851 9.86616 9.86615 8.98511 9.87146 7.89779V1.97472C9.86617 0.886362 8.98512 0.00636307 7.8978 0ZM20.0253 12.1286H14.1022C13.0149 12.1338 12.1338 13.0149 12.1285 14.1022V20.0253C12.1338 21.1136 13.0149 21.9936 14.1022 22H20.0253C21.1136 21.9937 21.9936 21.1137 22 20.0253V14.1022C21.9937 13.0149 21.1137 12.1339 20.0253 12.1286ZM20.0253 0H14.1022C13.0149 0.00634628 12.1338 0.886335 12.1285 1.97472V7.89779C12.1338 8.98509 13.0149 9.86614 14.1022 9.87145H20.0253C21.1136 9.86616 21.9936 8.98511 22 7.89779V1.97472C21.9937 0.886362 21.1137 0.00636307 20.0253 0Z" fill="#02DCBF"/>
</svg>
