<svg width="17" height="12" viewBox="0 0 17 12" fill="none" xmlns="http://www.w3.org/2000/svg">
<path d="M16.5475 3.96875C16.6725 3.875 16.86 3.96875 16.86 4.125V10.5C16.86 11.3438 16.1725 12 15.36 12H2.35999C1.51624 12 0.859985 11.3438 0.859985 10.5V4.125C0.859985 3.96875 1.01624 3.875 1.14124 3.96875C1.85999 4.53125 2.76624 5.21875 5.95374 7.53125C6.60999 8 7.73499 9.03125 8.85999 9.03125C9.95374 9.03125 11.11 8 11.735 7.53125C14.9225 5.21875 15.8287 4.53125 16.5475 3.96875ZM8.85999 8C8.10999 8.03125 7.07874 7.09375 6.54749 6.71875C2.39124 3.71875 2.07874 3.4375 1.14124 2.6875C0.953735 2.5625 0.859985 2.34375 0.859985 2.09375V1.5C0.859985 0.6875 1.51624 0 2.35999 0H15.36C16.1725 0 16.86 0.6875 16.86 1.5V2.09375C16.86 2.34375 16.735 2.5625 16.5475 2.6875C15.61 3.4375 15.2975 3.71875 11.1412 6.71875C10.61 7.09375 9.57874 8.03125 8.85999 8Z" fill="#00FCDB"/>
</svg>
