<svg width="13" height="17" viewBox="0 0 13 17" fill="none" xmlns="http://www.w3.org/2000/svg">
<path d="M6.23499 15.6875C1.67249 9.125 0.859985 8.4375 0.859985 6C0.859985 2.6875 3.51624 0 6.85999 0C10.1725 0 12.86 2.6875 12.86 6C12.86 8.4375 12.0162 9.125 7.45374 15.6875C7.17249 16.125 6.51624 16.125 6.23499 15.6875ZM6.85999 8.5C8.23499 8.5 9.35999 7.40625 9.35999 6C9.35999 4.625 8.23499 3.5 6.85999 3.5C5.45374 3.5 4.35999 4.625 4.35999 6C4.35999 7.40625 5.45374 8.5 6.85999 8.5Z" fill="#00FCDB"/>
</svg>
