<svg width="15" height="17" viewBox="0 0 15 17" fill="none" xmlns="http://www.w3.org/2000/svg">
<path d="M4.89124 16.8438C0.828735 12.8125 0.828735 6.21875 4.89124 2.1875C5.07874 2 5.32874 1.96875 5.54749 2.09375L7.57874 3.375C7.73499 3.46875 7.82874 3.625 7.82874 3.8125C7.82874 3.875 7.82874 3.96875 7.79749 4.03125L6.76624 6.5625C6.70374 6.75 6.51624 6.875 6.26624 6.875H6.23499L4.48499 6.71875C3.82874 8.53125 3.82874 10.5312 4.48499 12.3125L6.23499 12.1562H6.26624C6.51624 12.1562 6.70374 12.2812 6.76624 12.4688L7.79749 15C7.82874 15.0625 7.82874 15.1562 7.82874 15.2188C7.82874 15.4062 7.73499 15.5625 7.57874 15.6562L5.54749 16.9375C5.45374 17 5.35999 17 5.26624 17C5.10999 17 4.98499 16.9688 4.89124 16.8438ZM9.57874 4C9.92249 4.625 9.92249 5.40625 9.57874 6.03125C9.45374 6.25 9.17249 6.28125 8.98499 6.125L8.79749 5.9375C8.67249 5.8125 8.64124 5.625 8.73499 5.46875C8.79749 5.34375 8.82874 5.1875 8.82874 5.03125C8.82874 4.84375 8.79749 4.6875 8.73499 4.5625C8.64124 4.40625 8.67249 4.21875 8.79749 4.09375L8.98499 3.90625C9.17249 3.75 9.45374 3.78125 9.57874 4ZM12.4225 1.15625C14.3287 3.375 14.3287 6.65625 12.4225 8.875C12.2975 9.0625 12.0475 9.0625 11.8912 8.90625L11.7037 8.75C11.5787 8.59375 11.5475 8.375 11.6725 8.21875C13.235 6.375 13.235 3.65625 11.6725 1.8125C11.5475 1.65625 11.5787 1.4375 11.7037 1.28125L11.8912 1.125C12.0475 0.96875 12.2975 0.96875 12.4225 1.15625ZM10.985 2.5625C12.11 4 12.1412 6.03125 10.985 7.46875C10.86 7.65625 10.61 7.6875 10.4537 7.53125L10.2662 7.34375C10.11 7.21875 10.11 7 10.2037 6.84375C11.0475 5.78125 11.0475 4.25 10.2037 3.1875C10.11 3.03125 10.11 2.8125 10.2662 2.6875L10.4537 2.5C10.61 2.34375 10.86 2.375 10.985 2.5625Z" fill="#00FCDB"/>
</svg>
