<svg width="17" height="16" viewBox="0 0 17 16" fill="none" xmlns="http://www.w3.org/2000/svg">
<path d="M11.3107 4.54008C11.3107 5.25675 10.7193 5.83724 9.98921 5.83724C9.25909 5.83724 8.66772 5.25675 8.66772 4.54008C8.66772 3.8234 9.25909 3.24292 9.98921 3.24292C10.7193 3.24292 11.3107 3.8234 11.3107 4.54008Z" fill="black"/>
<path d="M7.86184 12.6471H3.07152C2.32984 12.6439 1.73021 12.0521 1.73021 11.324V9.66044L5.01404 7.18131L9.6111 10.5863C9.70608 10.656 9.8308 10.6722 9.94147 10.6301L10.7971 10.3058C10.9103 10.2596 10.9978 10.1672 11.0366 10.0528L11.0812 9.94257C11.1382 9.80151 11.092 9.64099 10.9689 9.55019L5.28656 5.35071C5.12054 5.22667 4.89094 5.22667 4.72494 5.35071L1.73014 7.62085V2.94464C1.73014 2.21418 2.3339 1.62154 3.07805 1.62154H11.6148C12.359 1.62154 12.9627 2.21418 12.9627 2.94464V7.11983C12.966 7.30711 13.1221 7.4579 13.3129 7.45871C13.5945 7.4579 13.8721 7.52114 14.124 7.64356C14.2305 7.69706 14.3577 7.6922 14.4593 7.62977C14.5609 7.56735 14.622 7.4579 14.6195 7.34035V2.94454C14.6195 2.163 14.3032 1.41308 13.7391 0.860988C13.1758 0.308066 12.411 -0.00161254 11.6148 6.31515e-06H3.07799C1.42119 6.31515e-06 0.078125 1.31825 0.078125 2.94466V11.3243C0.078125 12.9506 1.42109 14.269 3.07799 14.269H8.3969C8.53235 14.269 8.65625 14.1903 8.71076 14.0687C8.76527 13.9471 8.74132 13.8044 8.64964 13.7063C8.42334 13.4826 8.26559 13.2021 8.19207 12.8956C8.15573 12.7464 8.0178 12.6435 7.8617 12.6475L7.86184 12.6471Z" fill="black"/>
<path d="M15.2305 13.2635L16.7271 12.6847C16.7899 12.6603 16.8312 12.6003 16.8312 12.5339C16.8312 12.4674 16.7899 12.4074 16.7271 12.3831L15.2305 11.8042C14.6953 11.5967 14.2708 11.1799 14.0594 10.6546L13.4696 9.19529C13.4449 9.13367 13.3837 9.09314 13.316 9.09314C13.2483 9.09314 13.1872 9.13367 13.1624 9.19529L12.5727 10.6546C12.3612 11.1808 11.9375 11.5967 11.4015 11.8042L9.91486 12.3831C9.85209 12.4074 9.81079 12.4674 9.81079 12.5339C9.81079 12.6003 9.85209 12.6603 9.91486 12.6847L11.4015 13.2635C11.9375 13.4711 12.3612 13.887 12.5727 14.4131L13.1624 15.8724C13.1872 15.9349 13.2483 15.9762 13.316 15.9762C13.3837 15.9762 13.4449 15.9349 13.4696 15.8724L14.0594 14.4131C14.2708 13.8878 14.6953 13.4711 15.2305 13.2635Z" fill="black"/>
</svg>
