<svg width="22" height="21" viewBox="0 0 22 21" fill="none" xmlns="http://www.w3.org/2000/svg">
<path d="M1.57143 0C0.708123 0 0 0.700971 0 1.55556V17.1111C0 17.9657 0.708123 18.6667 1.57143 18.6667H3.53571V19.4444C3.53571 20.299 4.24384 21 5.10714 21H16.8929C17.7562 21 18.4643 20.299 18.4643 19.4444V18.6667H20.4286C21.2919 18.6667 22 17.9657 22 17.1111V1.55556C22 0.700971 21.2919 0 20.4286 0H1.57143ZM1.57143 0.777778H4.57575L6.43298 2.24777C6.50271 2.30318 6.58914 2.33332 6.67851 2.33332H15.7144C15.8037 2.33332 15.8902 2.30318 15.9599 2.24777L17.8171 0.777778H20.4287C20.8707 0.777778 21.2144 1.11806 21.2144 1.55556V17.1111C21.2144 17.5486 20.8707 17.8889 20.4287 17.8889H18.4644V17.1111C18.4644 16.2565 17.7563 15.5556 16.893 15.5556H5.10727C4.24397 15.5556 3.53585 16.2565 3.53585 17.1111V17.8889H1.57156C1.1296 17.8889 0.785845 17.5486 0.785845 17.1111V1.55556C0.785845 1.11806 1.12947 0.777778 1.57143 0.777778ZM3.53571 3.11111C2.67241 3.11111 1.96429 3.81208 1.96429 4.66667V7.77778C1.96429 8.63236 2.67241 9.33333 3.53571 9.33333H18.4643C19.3276 9.33333 20.0357 8.63236 20.0357 7.77778V4.66667C20.0357 3.81208 19.3276 3.11111 18.4643 3.11111H3.53571ZM5.10714 4.27778C5.64731 4.27778 6.08927 4.71527 6.08927 5.24999C6.08927 5.52999 5.96749 5.78276 5.77499 5.95972C6.53516 6.25916 7.0714 7.05443 7.0714 7.97221C7.0714 8.07915 6.98301 8.16665 6.87498 8.16665H3.33939C3.23135 8.16665 3.14296 8.07915 3.14296 7.97221C3.14296 7.05443 3.6792 6.25916 4.43937 5.95972C4.24688 5.78277 4.12509 5.52999 4.12509 5.24999C4.12509 4.71527 4.56697 4.27778 5.10714 4.27778ZM5.10714 4.66667C4.7791 4.66667 4.51784 4.92529 4.51784 5.25001C4.51784 5.57474 4.7791 5.83336 5.10714 5.83336C5.43518 5.83336 5.69644 5.57474 5.69644 5.25001C5.69644 4.92529 5.43518 4.66667 5.10714 4.66667ZM5.10714 6.22222C4.30964 6.22222 3.66241 6.89791 3.57107 7.77778H6.64327C6.55193 6.89791 5.90465 6.22222 5.10714 6.22222ZM8.05062 6.61111H12.7707C12.8227 6.61111 12.8728 6.63153 12.9102 6.66847C12.9465 6.70444 12.9671 6.75403 12.9671 6.80556C12.9671 6.85708 12.9465 6.90667 12.9102 6.94264C12.8728 6.97958 12.8227 7 12.7707 7H8.05062C7.99856 7 7.94847 6.97958 7.91115 6.94264C7.87481 6.90667 7.85419 6.85708 7.85419 6.80556C7.85419 6.75403 7.87481 6.70444 7.91115 6.66847C7.94847 6.63153 7.99856 6.61111 8.05062 6.61111ZM8.06633 7.38889H18.6608C18.7128 7.38889 18.7629 7.40931 18.7993 7.44625C18.8366 7.48222 18.8572 7.53181 18.8572 7.58333C18.8572 7.63486 18.8366 7.68444 18.7993 7.72042C18.7629 7.75736 18.7128 7.77778 18.6608 7.77778H8.06533C7.95729 7.77778 7.8689 7.69028 7.8689 7.58333C7.8689 7.47639 7.95729 7.38889 8.06533 7.38889H8.06633ZM5.10702 9.72222C4.24371 9.72222 3.53559 10.4232 3.53559 11.2778V13.6111C3.53559 14.4657 4.24371 15.1667 5.10702 15.1667H16.8927C17.756 15.1667 18.4642 14.4657 18.4642 13.6111V11.2778C18.4642 10.4232 17.756 9.72222 16.8927 9.72222H5.10702ZM6.28559 10.8889C6.71674 10.8889 7.0713 11.2399 7.0713 11.6667C7.0713 11.864 6.99568 12.0439 6.87291 12.1819C7.45434 12.4425 7.85703 13.0793 7.85703 13.8055C7.85703 13.9125 7.76863 14 7.6606 14H4.91047C4.80244 14 4.71404 13.9125 4.71404 13.8055C4.71404 13.0793 5.11673 12.4425 5.69816 12.1819C5.57539 12.0439 5.49977 11.864 5.49977 11.6667C5.49977 11.2399 5.85444 10.8889 6.28559 10.8889ZM6.28559 11.2778C6.06657 11.2778 5.89273 11.4499 5.89273 11.6667C5.89273 11.8835 6.06657 12.0556 6.28559 12.0556C6.50461 12.0556 6.67845 11.8835 6.67845 11.6667C6.67845 11.4499 6.50461 11.2778 6.28559 11.2778ZM6.28559 12.4444C5.71203 12.4444 5.27102 12.9558 5.17774 13.6111H7.39346C7.30016 12.9558 6.85915 12.4444 6.28559 12.4444ZM8.82049 12.4444H12.3837C12.4358 12.4444 12.4859 12.4649 12.5232 12.5018C12.5595 12.5378 12.5802 12.5874 12.5802 12.6389C12.5802 12.6904 12.5595 12.74 12.5232 12.776C12.4859 12.8129 12.4358 12.8333 12.3837 12.8333H8.82049C8.76844 12.8333 8.71835 12.8129 8.68201 12.776C8.64469 12.74 8.62406 12.6904 8.62406 12.6389C8.62406 12.5874 8.64469 12.5378 8.68201 12.5018C8.71835 12.4649 8.76844 12.4444 8.82049 12.4444ZM8.82933 13.2222H17.0893C17.1413 13.2222 17.1914 13.2426 17.2277 13.2796C17.2651 13.3156 17.2857 13.3651 17.2857 13.4167C17.2857 13.4682 17.2651 13.5178 17.2277 13.5538C17.1914 13.5907 17.1413 13.6111 17.0893 13.6111H8.83034C8.72132 13.6111 8.63391 13.5236 8.63391 13.4167C8.63391 13.3097 8.72132 13.2222 8.83034 13.2222H8.82933ZM6.28563 16.7221C6.71678 16.7221 7.07134 17.0731 7.07134 17.4999C7.07134 17.6972 6.99572 17.8771 6.87295 18.0152C7.45438 18.2757 7.85707 18.9125 7.85707 19.6388C7.85707 19.7457 7.76867 19.8332 7.66064 19.8332H4.91051C4.80248 19.8332 4.71408 19.7457 4.71408 19.6388C4.71408 18.9125 5.11677 18.2757 5.6982 18.0152C5.57543 17.8771 5.49981 17.6972 5.49981 17.4999C5.49981 17.0731 5.85448 16.7221 6.28563 16.7221ZM6.28563 17.111C6.06661 17.111 5.89277 17.2831 5.89277 17.4999C5.89277 17.7167 6.06661 17.8888 6.28563 17.8888C6.50464 17.8888 6.67849 17.7167 6.67849 17.4999C6.67849 17.2831 6.50464 17.111 6.28563 17.111ZM6.28563 18.2777C5.71207 18.2777 5.27106 18.789 5.17778 19.4443H7.3935C7.3002 18.789 6.85919 18.2777 6.28563 18.2777ZM8.82053 18.2777H12.3838C12.4358 18.2777 12.4859 18.2981 12.5232 18.335C12.5596 18.371 12.5802 18.4206 12.5802 18.4721C12.5802 18.5236 12.5596 18.5732 12.5232 18.6092C12.4859 18.6461 12.4358 18.6665 12.3838 18.6665H8.82053C8.76848 18.6665 8.71839 18.6461 8.68205 18.6092C8.64473 18.5732 8.6241 18.5236 8.6241 18.4721C8.6241 18.4206 8.64473 18.371 8.68205 18.335C8.71839 18.2981 8.76848 18.2777 8.82053 18.2777ZM8.82937 19.0554H17.0893C17.1414 19.0554 17.1914 19.0758 17.2278 19.1128C17.2651 19.1488 17.2857 19.1983 17.2857 19.2499C17.2857 19.3014 17.2651 19.351 17.2278 19.387C17.1914 19.4239 17.1414 19.4443 17.0893 19.4443H8.83038C8.72136 19.4443 8.63395 19.3568 8.63395 19.2499C8.63395 19.1429 8.72136 19.0554 8.83038 19.0554H8.82937Z" fill="#00FCDB"/>
</svg>
