<svg width="25" height="30" viewBox="0 0 25 30" fill="none" xmlns="http://www.w3.org/2000/svg">
<path fill-rule="evenodd" clip-rule="evenodd" d="M17.5585 6.38307C15.9862 4.81329 13.771 4.06209 11.5664 4.35239C9.36161 4.64121 7.41785 5.93861 6.30552 7.86157C5.19342 9.78598 5.04052 12.1158 5.89186 14.1661C6.7432 16.2177 8.50129 17.7575 10.6489 18.3322C12.7967 18.9068 15.0913 18.4519 16.8555 17.0991C18.6197 15.7478 19.6538 13.6528 19.6538 11.4336C19.6568 9.53758 18.9029 7.72105 17.5585 6.38307ZM12.4999 5.19189C14.4423 5.19189 16.2754 6.09426 17.458 7.63409C18.6405 9.17242 19.0377 11.1732 18.5356 13.0468C18.032 14.9203 16.6861 16.4541 14.8905 17.1964C13.0965 17.9371 11.0566 17.8039 9.37492 16.8342C7.69327 15.8646 6.55715 14.1691 6.30387 12.246C6.05057 10.3231 6.70706 8.39134 8.08145 7.02026C9.25203 5.84705 10.8421 5.1904 12.4999 5.19189ZM9.8245 22.1018L5.2593 29.9969L4.26561 26.2917H4.26411C4.19966 26.0508 3.95236 25.9086 3.71105 25.973L0 26.9666L4.34035 19.4619L4.67458 20.5917C4.86793 21.2606 5.47643 21.723 6.17337 21.729L9.18748 21.7829C9.33437 21.7829 9.47825 21.8338 9.59366 21.9266L9.82448 22.1032L9.8245 22.1018ZM20.7195 19.5639L25 26.9667L21.286 25.9746C21.0461 25.9102 20.7974 26.0539 20.7329 26.2933L19.7407 30L15.2411 22.2198L15.9111 21.7514C15.971 21.7095 16.037 21.6766 16.1074 21.6557C16.1779 21.6347 16.2528 21.6242 16.3263 21.6272L18.8083 21.6931C19.5037 21.7155 20.1317 21.2816 20.355 20.6231L20.7193 19.5651L20.7195 19.5639ZM14.994 14.3531H10.006L8.92086 10.3069L10.631 11.293C10.8468 11.4173 11.1226 11.3439 11.247 11.1284L12.5 8.9631L13.753 11.1299C13.8774 11.3454 14.1532 11.4187 14.369 11.2945L16.0791 10.3084L14.994 14.3531ZM9.66143 15.257C9.45609 15.257 9.27773 15.1193 9.22528 14.9217L7.76694 9.48801C7.71898 9.31293 7.78342 9.12587 7.92731 9.01363C8.0727 8.90289 8.27054 8.89092 8.42941 8.9822L10.6926 10.2871L12.1075 7.84041C12.1464 7.77008 12.2049 7.71171 12.2738 7.67131C12.4897 7.5471 12.7654 7.62043 12.8914 7.83592L14.3092 10.2871L16.5559 8.99266C16.7133 8.8924 16.9157 8.89838 17.067 9.00912C17.2169 9.11836 17.2844 9.3099 17.2349 9.49097L15.7825 14.8975C15.7391 15.107 15.5547 15.2567 15.3404 15.2567L9.66143 15.257ZM12.8899 0.147527L14.8593 1.65744V1.65594C15.1276 1.86544 15.4588 1.98067 15.8005 1.98216L18.8132 2.03603C19.1144 2.03753 19.3782 2.23805 19.4591 2.52838L20.1636 4.90323H20.1651C20.258 5.23095 20.4573 5.51828 20.7316 5.72177L23.1372 7.53398H23.1387C23.3815 7.71205 23.4774 8.02931 23.3725 8.31211L22.5437 10.6496C22.4268 10.9683 22.4193 11.317 22.5212 11.6417L23.401 14.5193H23.4025C23.4939 14.8067 23.3845 15.1194 23.1342 15.2855L21.0868 16.6892C20.8021 16.8807 20.5892 17.1606 20.4813 17.4853L19.4996 20.33C19.4067 20.6174 19.1324 20.8059 18.8311 20.7924L16.3491 20.7266V20.7281C16.0089 20.7146 15.6731 20.8149 15.3973 21.0139L12.9288 22.7378H12.9273C12.683 22.9159 12.3488 22.9069 12.112 22.7183L10.6926 21.6289L10.6896 21.6274L10.144 21.2099H10.1455C9.87574 21.0004 9.546 20.8852 9.20428 20.8822L6.19167 20.8283V20.8298C5.89041 20.8268 5.6266 20.6263 5.54418 20.3375L4.9117 18.2051L4.90871 18.1946L4.83976 17.9611V17.9596C4.74534 17.6319 4.54599 17.3446 4.2717 17.1411L1.86613 15.3289V15.3304C1.62182 15.1523 1.5259 14.8336 1.63231 14.5507L2.46117 12.2133V12.2148C2.57658 11.8945 2.58407 11.5459 2.48215 11.2211L1.60234 8.34345C1.50941 8.05614 1.61883 7.74338 1.87063 7.57728L3.91798 6.1736C3.92997 6.16612 3.94196 6.15714 3.95245 6.14816H3.95096C4.07835 6.05837 4.19076 5.95063 4.28519 5.82792C4.3871 5.69174 4.46804 5.5406 4.5235 5.38047L5.50522 2.53573C5.59814 2.24841 5.87243 2.05985 6.17369 2.07334L8.65573 2.13918V2.13769C8.99596 2.15115 9.33169 2.05089 9.60749 1.85187L12.0775 0.127966C12.3233 -0.0501097 12.6561 -0.0411342 12.8929 0.147419L12.8899 0.147527Z" fill="#00FCDB"/>
</svg>
