<svg width="23" height="23" viewBox="0 0 23 23" fill="none" xmlns="http://www.w3.org/2000/svg">
<path d="M11.5002 0.00390625C5.15801 0.00390625 0 5.16192 0 11.5041C0 14.6986 1.31186 17.5949 3.42432 19.6775L3.4371 19.6903C3.46265 19.7201 3.49246 19.7457 3.51802 19.767H3.52228C5.58802 21.7688 8.4077 22.9996 11.5 22.9996C14.5923 22.9996 17.412 21.7687 19.4777 19.767H19.482C19.5075 19.7457 19.5373 19.7201 19.5629 19.6903C19.5672 19.6903 19.5714 19.6818 19.5757 19.6775C21.6883 17.5947 23 14.6983 23 11.5041C23 5.16192 17.842 0.00390625 11.4998 0.00390625H11.5002ZM11.5002 0.85576C17.3737 0.85576 22.1482 5.63051 22.1482 11.5038C22.1482 14.2341 21.1217 16.7215 19.4265 18.604C18.4767 15.9037 15.9041 14.0594 13.0078 14.0594H9.99235C7.09604 14.0594 4.52358 15.9079 3.5695 18.604C1.87858 16.7215 0.852072 14.2341 0.852072 11.5038C0.852072 5.63023 5.62687 0.85576 11.5002 0.85576Z" fill="#00FCDB"/>
<path d="M15.7594 8.5223C15.7594 10.8745 13.8524 12.7816 11.5002 12.7816C9.148 12.7816 7.24091 10.8745 7.24091 8.5223C7.24091 6.17012 9.148 4.26303 11.5002 4.26303C13.8524 4.26303 15.7594 6.17012 15.7594 8.5223Z" fill="#00FCDB"/>
</svg>
